# Blender v2.93.5 OBJ File: 'iron.blend'
# www.blender.org
mtllib iron.mtl
o Cube
v 0.800350 0.467226 -1.636560
v 1.000000 -0.467226 -2.044806
v 0.800350 0.467226 1.636560
v 1.000000 -0.467226 2.044806
v -0.800350 0.467226 -1.636560
v -1.000000 -0.467226 -2.044806
v -0.800350 0.467226 1.636560
v -1.000000 -0.467226 2.044806
v 1.000000 0.467226 2.044806
v -1.000000 0.467226 2.044806
v 0.957316 0.397638 -1.972839
v -1.000000 0.467226 -2.044806
v 0.800350 0.343778 -1.636560
v 0.800350 0.343778 1.636560
v -0.800350 0.343778 -1.636560
v -0.800350 0.343778 1.636560
v 0.929851 0.467226 -1.901365
v 1.000000 0.467226 -1.922868
v 0.911354 0.467226 -2.044806
v 1.000000 0.288638 -2.044806
v -0.432580 0.467226 2.044806
v -0.765988 0.467226 2.044806
v -0.593741 0.467226 1.920349
v -0.657346 0.344660 2.044806
v -0.584606 0.395232 1.962836
v 1.000000 -0.467226 0.501395
v 0.910047 -0.419156 0.329183
v 1.000000 -0.467226 0.192221
v 0.749910 -0.467226 0.303912
v 1.000000 -0.343125 0.317560
v 1.000000 -0.408011 0.225445
vt 0.444335 0.856087
vt 0.444335 0.248854
vt 0.455778 0.248854
vt 0.455778 0.856087
vt 0.912947 0.573537
vt 0.845677 0.956439
vt 0.675830 0.956366
vt 0.645048 0.906132
vt 0.636300 0.956349
vt 0.608556 0.956337
vt 0.541337 0.573435
vt 0.228556 0.969523
vt 0.025412 0.969523
vt 0.025412 0.084401
vt 0.228556 0.084401
vt 0.495183 0.977645
vt 0.278258 0.977560
vt 0.278252 0.481411
vt 0.305377 0.456649
vt 0.278251 0.412839
vt 0.278247 0.070526
vt 0.495171 0.070611
vt 0.492401 0.985066
vt 0.322663 0.985066
vt 0.282559 0.957788
vt 0.282559 0.070196
vt 0.492401 0.070196
vt 0.492401 0.415466
vt 0.464532 0.456591
vt 0.479103 0.492232
vt 0.492401 0.484630
vt 0.914851 0.072658
vt 0.847864 0.448593
vt 0.615920 0.448587
vt 0.592360 0.376740
vt 0.538177 0.072652
vt 0.042369 0.893250
vt 0.208632 0.893951
vt 0.230035 0.981591
vt 0.205728 0.981488
vt 0.187634 0.954722
vt 0.171097 0.981342
vt 0.022297 0.980715
vt 0.036780 0.158964
vt 0.015583 0.098439
vt 0.022897 0.102117
vt 0.203043 0.159665
vt 0.223115 0.072200
vt 0.024585 0.071363
vt 0.198820 0.170835
vt 0.198820 0.880303
vt 0.049039 0.880303
vt 0.049039 0.170835
vt 0.413775 0.883485
vt 0.413775 0.250168
vt 0.431215 0.250168
vt 0.431215 0.883485
vt 0.353233 0.884627
vt 0.353233 0.247992
vt 0.371936 0.247992
vt 0.371936 0.884627
vt 0.384169 0.884627
vt 0.384169 0.247992
vt 0.402872 0.247992
vt 0.402872 0.884627
vt 0.015377 0.071325
vt 0.282559 0.985066
vt 0.605162 0.448587
vt 0.189514 0.981420
vt 0.654808 0.956357
vt 0.278252 0.462235
vt 0.492401 0.465288
vn 1.0000 0.0000 0.0000
vn 0.0000 0.0000 1.0000
vn -1.0000 0.0000 0.0000
vn 0.0000 -1.0000 0.0000
vn 0.0000 0.0000 -1.0000
vn 0.0000 1.0000 -0.0000
vn -0.2215 0.6548 -0.7226
vn 0.0475 0.5632 -0.8249
vn 0.8868 0.4402 -0.1407
vn 0.8789 0.4633 -0.1133
vn -0.5695 0.3630 0.7375
vn 0.0000 0.8511 0.5251
vn 0.5126 0.4837 0.7094
vn 0.3209 -0.8555 -0.4064
vn 0.1948 -0.8785 0.4363
vn 0.6687 -0.5283 0.5231
vn 0.5320 -0.7018 -0.4738
usemtl Material
s off
f 5/1/1 7/2/1 16/3/1 15/4/1
f 4/5/2 9/6/2 21/7/2 24/8/2 22/9/2 10/10/2 8/11/2
f 8/12/3 10/13/3 12/14/3 6/15/3
f 6/16/4 2/17/4 28/18/4 29/19/4 26/20/4 4/21/4 8/22/4
f 2/23/1 20/24/1 18/25/1 9/26/1 4/27/1 26/28/1 30/29/1 31/30/1 28/31/1
f 6/32/5 12/33/5 19/34/5 20/35/5 2/36/5
f 3/37/6 7/38/6 10/39/6 22/40/6 23/41/6 21/42/6 9/43/6
f 1/44/6 3/37/6 9/43/6 18/45/6 17/46/6
f 7/38/6 5/47/6 12/48/6 10/39/6
f 5/47/6 1/44/6 17/46/6 19/49/6 12/48/6
f 13/50/6 15/51/6 16/52/6 14/53/6
f 7/54/5 3/55/5 14/56/5 16/57/5
f 1/58/2 5/59/2 15/60/2 13/61/2
f 3/62/3 1/63/3 13/64/3 14/65/3
f 17/46/7 18/45/7 11/66/7
f 18/25/8 20/24/8 11/67/8
f 20/35/9 19/34/9 11/68/9
f 19/49/10 17/46/10 11/66/10
f 21/42/11 23/41/11 25/69/11
f 22/9/12 24/8/12 21/7/12 25/70/12
f 22/40/13 25/69/13 23/41/13
f 26/20/14 29/19/14 27/71/14
f 27/71/15 29/19/15 28/18/15
f 28/31/16 31/30/16 30/29/16 27/72/16
f 27/72/17 30/29/17 26/28/17
